<?xml version="1.0" encoding="utf-8"?>
<!-- Generator: Adobe Illustrator 26.0.1, SVG Export Plug-In . SVG Version: 6.00 Build 0)  -->
<svg version="1.1" id="Layer_1" xmlns="http://www.w3.org/2000/svg" xmlns:xlink="http://www.w3.org/1999/xlink" x="0px" y="0px"
	 viewBox="0 0 1125 401" style="enable-background:new 0 0 1125 401;" xml:space="preserve">
<style type="text/css">
	.st0{display:none;fill:#FFE7C9;}
	.st1{display:none;}
	.st2{display:inline;fill:#FFFFFF;}
	.st3{fill:#22905B;}
</style>
<circle class="st0" cx="954" cy="140" r="73"/>
<g>
	<g class="st1">
		<path class="st2" d="M76.12,97.68h11.83v26.81h26.97V97.68h11.83v66.71h-11.83v-29.58H87.96v29.58H76.12V97.68z"/>
		<path class="st2" d="M141.38,98.87c0-3.96,3.1-6.65,7.26-6.65c4.16,0,7.26,2.69,7.26,6.65c0,3.88-3.1,6.65-7.26,6.65
			C144.48,105.52,141.38,102.74,141.38,98.87z M142.73,114.29h11.75v50.1h-11.75V114.29z"/>
		<path class="st2" d="M170.47,157.7c0-4.61,3.31-8,7.59-8s7.59,3.39,7.59,8c0,4.53-3.3,7.92-7.59,7.92S170.47,162.23,170.47,157.7z
			 M172.51,107.64l-0.37-11.59h11.83l-0.37,11.59l-1.63,34.8h-7.83L172.51,107.64z"/>
	</g>
</g>
<g>
	<g class="st1">
		<path class="st2" d="M75.94,182.64h11.83v26.81h26.97v-26.81h11.83v66.71h-11.83v-29.58H87.77v29.58H75.94V182.64z"/>
		<path class="st2" d="M139.85,235.89c0-10.73,8.89-16.32,29.46-18.52c-0.16-5.39-2.33-9.87-9.1-9.87c-4.98,0-9.67,2.24-14.08,4.94
			l-4.32-7.83c5.51-3.47,12.61-6.57,20.56-6.57c12.53,0,18.69,7.71,18.69,21.67v29.66h-9.63l-0.9-5.55h-0.33
			c-4.49,3.83-9.63,6.77-15.55,6.77C145.89,250.58,139.85,244.62,139.85,235.89z M169.31,235.93v-11.26
			c-13.59,1.71-18.12,5.26-18.12,10.32c0,4.43,3.02,6.37,7.22,6.37C162.49,241.36,165.6,239.36,169.31,235.93z"/>
		<path class="st2" d="M195.17,199.25h9.63l0.9,8.94h0.33c3.57-6.53,8.87-10.16,14.24-10.16c2.55,0,4.16,0.33,5.67,1.02l-2.04,10.2
			c-1.75-0.49-3.06-0.82-5.14-0.82c-4,0-8.81,2.73-11.83,10.36v30.56h-11.75V199.25z"/>
		<path class="st2" d="M228.24,243.6l5.47-7.47c4.45,3.47,8.75,5.59,13.83,5.59c5.47,0,8.04-2.57,8.04-6c0-4.2-5.43-6.08-10.77-8.12
			c-6.57-2.47-14.08-6.24-14.08-14.61c0-8.69,7.02-14.97,18.24-14.97c6.98,0,12.57,2.84,16.65,6l-5.39,7.22
			c-3.51-2.57-7.04-4.37-10.98-4.37c-5.04,0-7.43,2.41-7.43,5.55c0,3.96,5.06,5.47,10.49,7.47c6.77,2.53,14.36,5.79,14.36,15.14
			c0,8.61-6.81,15.55-19.46,15.55C240.36,250.58,233.14,247.64,228.24,243.6z"/>
		<path class="st2" d="M277.18,177.3h11.75v18.65l-0.49,9.67c4.2-3.96,9.18-7.59,16.04-7.59c10.73,0,15.42,7.26,15.42,19.91v31.42
			h-11.75v-29.91c0-8.24-2.37-11.34-7.79-11.34c-4.41,0-7.3,2.16-11.42,6.24v35.01h-11.75V177.3z"/>
	</g>
</g>
<path class="st3" d="M1125,0H0v326.13c52.55,25.36,110.58,40.4,171.11,42.87h35.56c14.23-0.58,28.57-1.85,42.97-3.85l731.44-101.79
	c51.8-7.21,100.21-23.23,143.92-46.34V0z"/>
</svg>
