<?xml version="1.0" encoding="utf-8"?>
<!-- Generator: Adobe Illustrator 26.0.1, SVG Export Plug-In . SVG Version: 6.00 Build 0)  -->
<svg version="1.1" id="Layer_1" xmlns="http://www.w3.org/2000/svg" xmlns:xlink="http://www.w3.org/1999/xlink" x="0px" y="0px"
	 viewBox="0 0 1125 2436" style="enable-background:new 0 0 1125 2436;" xml:space="preserve">
<style type="text/css">
	.st0{fill:none;}
	.st1{fill:#22905B;}
</style>
<g>
	<path class="st0" d="M877.1,1546.8c-95,380.8-134.4-4.6-139.3-112.1l-51.7-476.1c-7.5-69.4,42.6-131.8,112.1-139.3l326.9-35.5V0H0
		v196.5l56.2-97.3C91.1,38.8,168.4,18,228.9,53l241.7,139.6c60.5,34.9,81.2,112.2,46.3,172.7L413.8,543.8
		C378.9,604.2,301.6,625,241.1,590L0,450.8V1850l370.8-40.2c69.4-7.5,131.8,42.6,139.3,112.1l51.7,476.1c1.4,13,0.8,25.8-1.6,38
		H1125v-916.1L877.1,1546.8z"/>
	<path class="st1" d="M844.9,1225.2l34.9,321.5c7.5,69.4,69.9,119.6,139.3,112.1l109.2-11.8c78.9-8.6,138.7-75.2,138.7-154.6v-423.2
		c0-92.5-80.3-164.6-172.3-154.6l0,0C939.9,931.3,828.1,1070.4,844.9,1225.2z"/>
	<path class="st1" d="M544.7,2659l-51.7-476.1c-7.5-69.4-69.9-119.6-139.3-112.1l-339.8,36.9c-17.6,1.9-30.9,16.8-30.9,34.5v520.2
		c0,19.2,15.5,34.7,34.7,34.7h492.9c20.3,0,36.3-17.5,34.2-37.7C544.8,2659.2,544.8,2659.1,544.7,2659z"/>
</g>
</svg>
